<svg width="137" height="23" viewBox="0 0 137 23" fill="none" xmlns="http://www.w3.org/2000/svg">
<path d="M16.57 18.73V22H0.82V0.999999H16.15V4.27H4.72V9.73H14.86V12.94H4.72V18.73H16.57ZM34.5133 22L28.8133 14.02L23.1733 22H18.7333L26.5333 11.29L19.1533 0.999999H23.5633L28.9333 8.47L34.2433 0.999999H38.4733L31.1233 11.14L39.0133 22H34.5133ZM51.7323 22.3C49.5923 22.3 47.6623 21.84 45.9423 20.92C44.2223 19.98 42.8723 18.69 41.8923 17.05C40.9123 15.39 40.4223 13.54 40.4223 11.5C40.4223 9.46 40.9123 7.62 41.8923 5.98C42.8723 4.32 44.2223 3.03 45.9423 2.11C47.6623 1.17 49.5923 0.699999 51.7323 0.699999C53.8723 0.699999 55.8023 1.17 57.5223 2.11C59.2423 3.03 60.5923 4.31 61.5723 5.95C62.5523 7.59 63.0423 9.44 63.0423 11.5C63.0423 13.56 62.5523 15.41 61.5723 17.05C60.5923 18.69 59.2423 19.98 57.5223 20.92C55.8023 21.84 53.8723 22.3 51.7323 22.3ZM51.7323 18.88C53.1323 18.88 54.3923 18.57 55.5123 17.95C56.6323 17.31 57.5123 16.43 58.1523 15.31C58.7923 14.17 59.1123 12.9 59.1123 11.5C59.1123 10.1 58.7923 8.84 58.1523 7.72C57.5123 6.58 56.6323 5.7 55.5123 5.08C54.3923 4.44 53.1323 4.12 51.7323 4.12C50.3323 4.12 49.0723 4.44 47.9523 5.08C46.8323 5.7 45.9523 6.58 45.3123 7.72C44.6723 8.84 44.3523 10.1 44.3523 11.5C44.3523 12.9 44.6723 14.17 45.3123 15.31C45.9523 16.43 46.8323 17.31 47.9523 17.95C49.0723 18.57 50.3323 18.88 51.7323 18.88Z" fill="#E7272D"/>
<path d="M72.2763 3.61H65.0763V0.999999H82.4463V3.61H75.2463V22H72.2763V3.61ZM86.3137 0.999999H89.3137V22H86.3137V0.999999ZM105.591 22.24C103.491 22.24 101.591 21.78 99.8908 20.86C98.2108 19.92 96.8908 18.64 95.9308 17.02C94.9708 15.38 94.4908 13.54 94.4908 11.5C94.4908 9.46 94.9708 7.63 95.9308 6.01C96.8908 4.37 98.2208 3.09 99.9208 2.17C101.621 1.23 103.521 0.76 105.621 0.76C107.261 0.76 108.761 1.04 110.121 1.6C111.481 2.14 112.641 2.95 113.601 4.03L111.651 5.92C110.071 4.26 108.101 3.43 105.741 3.43C104.181 3.43 102.771 3.78 101.511 4.48C100.251 5.18 99.2608 6.15 98.5408 7.39C97.8408 8.61 97.4908 9.98 97.4908 11.5C97.4908 13.02 97.8408 14.4 98.5408 15.64C99.2608 16.86 100.251 17.82 101.511 18.52C102.771 19.22 104.181 19.57 105.741 19.57C108.081 19.57 110.051 18.73 111.651 17.05L113.601 18.94C112.641 20.02 111.471 20.84 110.091 21.4C108.731 21.96 107.231 22.24 105.591 22.24ZM131.362 16.75H120.202L117.892 22H114.802L124.312 0.999999H127.282L136.822 22H133.672L131.362 16.75ZM130.312 14.35L125.782 4.06L121.252 14.35H130.312Z" fill="white"/>
</svg>
